<svg width="66" height="66" viewBox="0 0 66 66" fill="none" xmlns="http://www.w3.org/2000/svg">
<path fill-rule="evenodd" clip-rule="evenodd" d="M33 66C51.2254 66 66 51.2254 66 33C66 14.7746 51.2254 0 33 0C14.7746 0 0 14.7746 0 33C0 51.2254 14.7746 66 33 66ZM23.614 45.2C23.614 43.66 24.86 42.4 26.4 42.4C27.94 42.4 29.2 43.66 29.2 45.2C29.2 46.74 27.94 48 26.4 48C24.86 48 23.614 46.74 23.614 45.2ZM18 22.8V20H22.578L23.894 22.8H44.6C45.37 22.8 46 23.43 46 24.2C46 24.438 45.944 24.676 45.832 24.872L40.82 33.958C40.344 34.826 39.42 35.4 38.37 35.4H27.94L26.68 37.682L26.638 37.85C26.638 38.046 26.792 38.2 26.988 38.2H43.2V41H26.4C24.86 41 23.6 39.74 23.6 38.2C23.6 37.71 23.726 37.248 23.95 36.856L25.84 33.426L20.8 22.8H18ZM37.614 45.2C37.614 43.66 38.86 42.4 40.4 42.4C41.94 42.4 43.2 43.66 43.2 45.2C43.2 46.74 41.94 48 40.4 48C38.86 48 37.614 46.74 37.614 45.2Z" fill="white"/>
</svg>
