<svg width="24" height="23" viewBox="0 0 24 23" fill="none" xmlns="http://www.w3.org/2000/svg">
<path fill-rule="evenodd" clip-rule="evenodd" d="M13.6982 14.3953L21.2697 21.9658C21.5822 22.2782 22.0887 22.2782 22.4011 21.9658L22.9667 21.4001C23.2792 21.0877 23.2792 20.5811 22.9667 20.2687L15.3952 12.6982L13.6982 14.3953Z" fill="#C0C0C2"/>
<path fill-rule="evenodd" clip-rule="evenodd" d="M22.4485 1.11741C22.7609 1.42983 22.7609 1.93636 22.4485 2.24878L2.7313 21.9658C2.41888 22.2782 1.91235 22.2782 1.59993 21.9658L1.03424 21.4001C0.721822 21.0877 0.721822 20.5812 1.03424 20.2687L20.7514 0.551729C21.0639 0.239309 21.5704 0.239309 21.8828 0.551728L22.4485 1.11741Z" fill="#C0C0C2"/>
<path fill-rule="evenodd" clip-rule="evenodd" d="M10.303 11.0001L1.55169 2.24878C1.23927 1.93636 1.23927 1.42983 1.55169 1.11741L2.11737 0.551728C2.42979 0.239308 2.93632 0.239308 3.24874 0.551728L12.0001 9.30304L11.1515 10.1516L10.303 11.0001Z" fill="#C0C0C2"/>
</svg>
