<svg width="17" height="20" viewBox="0 0 17 20" fill="none" xmlns="http://www.w3.org/2000/svg">
    <path fill-rule="evenodd" clip-rule="evenodd" d="M2.31864 0.639893H14.9117C15.9737 0.639893 16.8383 1.50449 16.8477 2.56645V19.2758L14.8178 17.5184L13.6806 16.4752L12.4777 15.3663L12.9758 17.0861H2.31864C1.25669 17.0861 0.39209 16.2215 0.39209 15.1595V2.56645C0.39209 1.50449 1.25669 0.639893 2.31864 0.639893ZM10.6639 12.0582C10.9458 12.406 11.2842 12.8101 11.2842 12.8101C13.2519 12.7478 14.0639 11.5298 14.1439 11.4098C14.1483 11.4032 14.1505 11.3999 14.1505 11.4004C14.1505 8.4025 12.7972 5.96846 12.7972 5.96846C11.4533 4.96289 10.1658 4.99109 10.1658 4.99109L10.0343 5.14145C11.6319 5.62074 12.3743 6.32558 12.3743 6.32558C11.3969 5.7993 10.4384 5.53616 9.54557 5.43278C8.86893 5.3576 8.22048 5.3764 7.64721 5.45158C7.59799 5.45158 7.55593 5.45874 7.50853 5.46681C7.50163 5.46799 7.49461 5.46918 7.48745 5.47037C7.15852 5.50797 6.35971 5.62074 5.35414 6.06244C5.00642 6.2128 4.79967 6.32558 4.79967 6.32558C4.79967 6.32558 5.57029 5.58315 7.2619 5.10386L7.16792 4.99109C7.16792 4.99109 5.88982 4.96289 4.53653 5.96846C4.53653 5.96846 3.18324 8.4025 3.18324 11.4004C3.18324 11.4004 3.97266 12.7537 6.04958 12.8195C6.04958 12.8195 6.3973 12.406 6.67924 12.0489C5.48571 11.6917 5.03462 10.9493 5.03462 10.9493C5.03462 10.9493 5.12859 11.0151 5.29775 11.1091C5.30356 11.1091 5.30937 11.1127 5.3174 11.1176C5.32236 11.1207 5.32817 11.1243 5.33535 11.1279C5.34944 11.1373 5.36354 11.1443 5.37764 11.1514C5.39173 11.1584 5.40583 11.1655 5.41993 11.1749C5.65487 11.3064 5.88982 11.4098 6.10597 11.4944C6.49128 11.6541 6.95177 11.7951 7.48745 11.8985C8.19229 12.0301 9.01929 12.077 9.92148 11.9079C10.3632 11.8233 10.8143 11.7011 11.2842 11.5038C11.6131 11.3816 11.9796 11.203 12.3649 10.9493C12.3649 10.9493 11.895 11.7105 10.6639 12.0582ZM9.3857 9.49263C9.3857 8.91936 9.8086 8.45887 10.3443 8.45887C10.8706 8.45887 11.3029 8.91936 11.3029 9.49263C11.3029 10.0659 10.8799 10.5264 10.3443 10.5264C9.818 10.5264 9.3857 10.0659 9.3857 9.49263ZM5.95549 9.49263C5.95549 8.91936 6.37839 8.45887 6.91407 8.45887C7.44974 8.45887 7.88204 8.91936 7.87264 9.49263C7.87264 10.0659 7.44974 10.5264 6.91407 10.5264C6.38779 10.5264 5.95549 10.0659 5.95549 9.49263Z" fill="#bcbcc2"/>
</svg>
