<svg width="104" height="25" viewBox="0 0 104 25" fill="none" xmlns="http://www.w3.org/2000/svg">
    <path d="M0.736328 19.7452H4.61236C8.12005 19.7452 10.2343 17.5675 10.2343 14.4888C10.2343 12.6266 8.85682 9.4427 4.29203 9.4427H0.736328L0.736328 19.7452ZM4.21197 12.3863C5.90974 12.3863 6.75861 13.3775 6.75861 14.7441C6.75861 15.9756 5.79761 16.8016 4.6284 16.8016H4.21197V12.3863ZM16.8332 12.2361C18.3548 12.2361 19.2517 13.3925 19.2517 14.5939C19.2517 15.7954 18.3548 16.9518 16.8332 16.9518C15.3116 16.9518 14.4147 15.7954 14.4147 14.5939C14.4147 13.3925 15.3116 12.2361 16.8332 12.2361ZM16.8332 9.20239C12.9411 9.20239 10.939 11.9657 10.939 14.5939C10.939 17.2221 12.9411 19.9855 16.8332 19.9855C20.7253 19.9855 22.7273 17.2221 22.7273 14.5939C22.7273 11.9657 20.7253 9.20239 16.8332 9.20239ZM22.9356 12.4764H25.3221V19.9855L28.7977 19.7452V12.4764H30.8479V9.4427H23.6723L22.9356 12.4764ZM30.063 19.7452L33.6988 19.9855L34.2594 18.1983H37.2706L37.8151 19.9855L41.5791 19.7452L37.8792 9.4427H33.6828L30.063 19.7452ZM36.6139 15.6302H34.8681L35.7329 12.3863H35.765L36.6139 15.6302Z" fill="white"/>
    <path fill-rule="evenodd" clip-rule="evenodd" d="M47.325 4.67743C47.4709 4.87247 47.6474 5.09355 47.6239 5.33152C47.5899 5.67568 47.3841 5.79946 47.084 5.91279C46.9435 5.725 46.8926 5.01559 46.8456 4.72889C46.8394 4.69159 46.8358 4.669 46.833 4.63375C46.8314 4.61242 46.8313 4.61154 46.8282 4.58641C46.8165 4.49479 46.8432 4.52395 46.8941 4.44836C46.9233 4.40497 46.912 4.39397 46.9294 4.35179C47.0653 4.35123 47.6739 4.25226 47.7968 4.22479C48.0582 4.16634 48.0026 4.13772 48.3009 4.28886C48.4097 4.344 48.5009 4.38657 48.6116 4.4318C48.7717 4.49724 49.0646 4.81689 49.1992 4.95167C49.5978 5.35077 49.6295 5.43663 49.8006 5.9687C49.8519 6.1284 49.9113 6.42373 49.9245 6.58467C49.9473 6.86332 49.9725 7.20979 49.7919 7.44697C49.7236 7.53666 49.6722 7.63256 49.5958 7.71255C49.5948 7.66679 49.6143 7.63368 49.6243 7.58693C49.7005 7.23267 49.758 7.0309 49.728 6.65473C49.7045 6.36081 49.63 6.07308 49.4807 5.8044C49.3406 5.55245 49.3938 5.61421 49.2184 5.3797C49.0144 5.10704 48.5021 4.66025 48.2729 4.54475C47.9345 4.37428 47.7584 4.49891 47.3738 4.57535C47.1912 4.61163 47.2534 4.58167 47.325 4.67743ZM38.883 4.07076C38.4989 4.32344 38.2895 4.38756 37.8549 4.47352L37.0205 4.5834C37.0333 4.67874 37.001 4.88499 37.032 5.08785L37.1297 5.60646C37.394 6.66644 38.1526 7.96996 38.868 8.92623C39.078 8.84695 39.2847 8.76132 39.5011 8.67206L39.9852 8.47234C40.0477 8.4465 40.0894 8.43951 40.1473 8.40142C40.1514 8.57646 39.6588 9.1807 39.4962 9.37387C39.4587 9.41845 39.3978 9.47184 39.3738 9.51195C39.5062 9.68883 39.9778 10.1554 40.1381 10.3078C40.6479 10.7926 41.1705 11.216 41.7411 11.6069C41.9381 11.7418 42.146 11.8643 42.3564 11.9786C42.42 12.0132 42.523 12.053 42.5729 12.0948C42.6051 12.0589 42.5893 12.0758 42.6 12.0341L43.0684 10.3243C43.077 10.2916 43.0825 10.2861 43.0907 10.2535L43.3121 9.46169C43.3275 9.41374 43.3355 9.38387 43.3497 9.33756L43.5324 8.67897C43.6086 8.43665 43.4652 8.29517 43.2972 8.11639C43.1712 7.98216 43.0756 7.84607 42.9679 7.70199C42.6559 7.28507 42.5345 6.86452 42.4618 6.40893C42.3762 5.87253 42.4998 5.29071 42.8528 4.85392C43.2039 4.41945 42.9925 4.50151 43.6401 4.32039C43.886 4.25162 44.1374 4.16201 44.391 4.12658C44.5572 4.10335 44.6983 4.13263 44.8584 4.17438C44.9119 4.18834 45.0427 4.2218 45.082 4.2527C45.0205 4.31715 44.9152 4.54809 44.8727 4.63705C44.7722 4.84763 44.7091 4.81425 44.8147 5.05564C44.9389 5.33944 44.9464 5.63232 44.9865 5.93075C44.7328 5.96065 44.4172 5.73422 44.2747 5.54382C44.1589 5.38903 44.1147 5.21473 44.0947 5.03958C44.0764 4.87897 44.1706 4.70683 44.285 4.58694C44.1043 4.38359 43.5791 4.7199 43.2762 4.78035C43.0565 4.8242 43.1488 4.7666 42.9652 5.16093L42.8885 5.33444C42.7617 5.62454 42.6244 5.93798 42.624 6.24949C42.6236 6.63674 42.8789 7.10044 43.0797 7.46911C43.1179 7.53921 43.1571 7.60895 43.1979 7.68399C43.2375 7.75666 43.2796 7.83747 43.318 7.8992C43.401 7.8894 43.8342 7.88249 43.9029 7.90285C44.0656 7.95095 44.3346 8.17452 44.4409 8.31652C44.6016 8.53132 44.71 8.8055 44.7879 9.01573C44.9147 9.35798 44.9975 9.68643 45.1244 10.0296L45.3878 10.7244C45.4282 10.8234 45.4934 10.9873 45.5619 11.0788C45.6125 11.1464 45.771 11.2002 45.8237 11.2707C45.8544 11.3118 45.851 11.4047 45.8588 11.4533L45.9423 12.0161C46.012 12.4544 46.0597 12.888 46.1075 13.3275C46.1212 13.4538 46.132 13.5744 46.1618 13.6994C46.18 13.7754 46.1824 13.8165 46.2039 13.8926C46.2396 14.019 46.2406 13.9927 46.5166 14.0928C46.5475 14.1647 46.6127 14.6189 46.6201 14.7148C46.6437 15.0199 46.7602 15.6235 46.8131 15.9563C46.847 16.1691 46.8725 16.3691 46.9071 16.586C46.9746 17.0107 47.0324 17.4128 47.0998 17.8368C47.2566 18.8215 47.3792 19.8103 47.5392 20.7941L47.7355 22.2037C47.7439 22.2391 47.7678 22.3248 47.77 22.3583C47.7764 22.4568 47.6057 22.5625 47.528 22.6256C47.4431 22.6946 47.4789 22.6875 47.468 22.7739C47.4302 23.0754 47.6369 23.402 47.4619 23.685C47.4013 23.7828 47.3115 23.86 47.2229 23.9528C47.3538 24.1628 47.26 24.6569 47.3949 24.8372C47.4423 24.9005 47.5425 24.8759 47.6101 24.8542C47.6915 24.828 47.7594 24.8286 47.8389 24.7986C47.9001 24.85 47.9963 24.9303 48.0509 24.9916C48.1888 24.9395 48.3093 24.8543 48.4363 24.7883C48.7002 24.651 48.8779 24.5183 49.1951 24.5517C49.2755 24.5602 49.4663 24.6132 49.5308 24.6673C49.5757 24.6323 49.6248 24.5594 49.6688 24.5132C49.8347 24.5734 50.0499 24.6087 50.2273 24.6051C50.2212 24.3398 50.1016 23.936 50.0146 23.6479C49.9923 23.5739 49.8803 23.5996 49.7049 23.3652C49.5922 23.2145 49.5438 22.9298 49.5039 22.7737C49.4305 22.4865 49.3005 22.4183 49.1226 22.1806C49.0682 22.1078 49.0658 22.0187 49.054 21.9459L48.9209 21.0306C48.8347 20.4893 48.7174 19.9573 48.6139 19.4167L48.4791 18.7244C48.3988 18.3395 48.3496 17.9451 48.258 17.562L48.0117 16.1814C47.9873 16.0285 47.963 15.8756 47.9387 15.7227L47.8421 15.0367C47.8095 14.7812 47.7063 14.1341 47.825 13.9078C47.8935 13.777 48.0186 13.6425 48.0613 13.5C48.1023 13.3639 48.082 13.1935 48.0642 13.0537C48.015 12.6687 47.9325 12.2878 47.869 11.9049C47.8624 11.8652 47.8516 11.8328 47.8438 11.7891C47.8361 11.7456 47.8328 11.718 47.8258 11.6744C47.8125 11.5908 47.8085 11.5227 47.7959 11.4462C47.7649 11.2586 47.7499 11.0619 47.7676 10.8738C47.7827 10.7144 47.8511 10.5966 47.879 10.4454C47.9838 9.87671 47.9412 9.25925 47.9752 8.67443C47.9778 8.62944 47.9855 8.60735 47.9874 8.56475C47.9997 8.28777 48.1026 7.90306 48.3727 7.72539C48.5062 7.63754 48.6564 7.55723 48.8052 7.53552C48.9272 7.51771 49.1521 7.51756 49.2325 7.63329C49.261 7.6744 49.2428 7.66071 49.2709 7.70556C49.3433 7.82094 49.4179 7.94837 49.3938 8.07947C49.3749 8.18151 49.3421 8.24464 49.3012 8.34344C49.277 8.4016 49.2028 8.557 49.2087 8.60744C49.218 8.68596 50.096 10.2679 50.2076 10.4468C50.429 10.802 50.7751 11.403 51.1087 11.5629C51.2062 11.4868 51.2989 11.362 51.3814 11.2727C51.5552 11.0846 51.738 10.8874 51.8954 10.6872C52.0559 10.4832 52.2026 10.2945 52.3431 10.0815C52.3794 10.0264 52.4077 9.98589 52.4432 9.93042C52.9519 9.13608 53.4377 8.24842 53.6888 7.35268C53.6988 7.31696 53.7049 7.31193 53.713 7.2729C53.757 7.0617 53.7466 7.09766 53.6146 6.92169C53.5164 6.79086 53.4453 6.67284 53.3401 6.53218C53.4477 6.51952 53.5218 6.52385 53.6292 6.5254C53.7154 6.52663 53.8482 6.52069 53.9369 6.47215L53.9446 5.8685C53.939 5.65877 53.9343 5.46305 53.9289 5.25171L53.8813 4.32253C53.876 4.25419 53.8707 4.06909 53.8322 4.00736C53.7472 4.03653 53.6181 4.02533 53.5297 4.03299C53.2163 4.06011 52.9384 4.08202 52.6407 3.95698C52.3525 3.83598 51.8436 3.44867 51.5966 3.11853C51.2039 2.5936 51.2194 2.14474 51.1336 1.58125C51.1121 1.44059 50.9944 1.35435 50.8689 1.27828C50.64 1.13955 50.404 1.04023 50.1576 0.942489L49.7862 0.805369C49.6634 0.767835 49.5465 0.719505 49.4236 0.674657C48.935 0.496404 48.7608 0.416215 48.2334 0.299106L47.8611 0.219678C47.5826 0.163303 47.0806 0.0548537 46.8091 0.060383C46.8686 0.136242 46.9505 0.18855 47.0214 0.251947C47.0947 0.317508 47.1648 0.381372 47.2415 0.454598C47.6995 0.891672 48.1184 1.40639 48.1517 2.03079C48.1595 2.17616 48.1309 2.30172 48.1055 2.442C48.0578 2.70603 47.906 2.8564 47.6304 2.9389C47.5633 2.95897 47.4745 2.9803 47.4024 2.99039L47.1813 3.00478C47.0986 3.00668 47.04 3.0023 46.9641 2.99893L46.7497 2.97763C46.4558 2.92816 46.4641 2.94086 46.4125 2.77776C46.3954 2.7239 46.3689 2.612 46.3316 2.55972C46.2683 2.58146 45.5517 2.5771 45.3848 2.58082C45.2779 2.58321 45.1721 2.58216 45.0665 2.58433C45.0683 2.65992 45.0702 2.7287 45.0723 2.80863C45.0734 2.85274 45.0742 2.87665 45.0752 2.92076C45.0761 2.9616 45.0683 2.99896 45.0818 3.03354C44.9533 3.11803 44.8986 3.15744 44.773 3.1986C44.6801 3.22905 44.5642 3.24611 44.4758 3.24877C44.2977 3.2541 44.0936 3.21873 43.9247 3.1704C43.6247 3.08456 43.1064 2.89882 42.8727 2.58646C42.771 2.45051 42.7628 2.36444 42.7424 2.23929C42.7237 2.12511 42.716 2.00773 42.7134 1.89949C42.7107 1.78653 42.7062 1.67779 42.7137 1.56454C42.7245 1.4018 42.7427 1.23267 42.7837 1.07349C42.8544 0.798904 42.9667 0.527181 43.1447 0.295303L43.3349 0.0753032C43.3825 0.0301037 43.3853 0.046984 43.3863 0C43.349 0.0127846 43.2727 0.0148324 43.2233 0.0225558C43.0426 0.0508165 42.8679 0.104529 42.6926 0.153415C42.5832 0.183928 42.453 0.224125 42.345 0.260665L41.2702 0.647742C41.0928 0.714122 40.691 0.854548 40.549 0.94793C40.6073 1.04143 40.6026 1.18001 40.6457 1.28024C40.6037 1.29466 40.5977 1.28352 40.5586 1.26845C40.5246 1.25535 40.5074 1.24914 40.4751 1.23727L40.2238 1.14807C40.1543 1.13072 40.0572 1.20233 39.9355 1.25652L39.1544 1.61197C39.1912 1.6976 39.2027 1.83694 39.2174 1.92945C39.3062 2.48737 39.4823 3.27352 39.1387 3.7964C39.0855 3.87729 38.9855 4.00335 38.883 4.07076Z" fill="#D45F93"/>
    <path fill-rule="evenodd" clip-rule="evenodd" d="M70.7039 16.629C68.4267 16.629 67.4428 14.1071 68.933 12.6384C70.4389 11.1542 72.9891 12.2538 72.9891 14.2671C72.9891 14.9821 72.6952 15.5319 72.3227 15.8959C71.8924 16.314 71.3834 16.629 70.7065 16.629H70.7039ZM64.7432 14.2671C64.7432 15.4906 65.0947 16.4431 65.8057 17.3749C66.3698 18.1157 67.3011 18.8333 68.2063 19.2024C68.5473 19.3418 68.9015 19.4554 69.2977 19.538C69.4787 19.5767 69.7358 19.6154 69.8985 19.6309C70.3943 19.68 70.7695 19.6567 71.247 19.6361C73.2173 19.5483 74.9908 18.2345 75.9196 16.5773C76.0822 16.2882 76.2449 15.883 76.3157 15.5577C76.767 13.5057 76.237 11.9595 74.7993 10.5424C73.8837 9.639 72.3804 8.93433 70.9768 8.93433C69.8145 8.93433 69.1219 8.95239 68.0462 9.44283C67.4454 9.71644 66.8551 10.1114 66.417 10.545C65.3964 11.5543 64.7432 12.6771 64.7432 14.2671Z" fill="#FEFEFE"/>
    <path fill-rule="evenodd" clip-rule="evenodd" d="M83.633 9.16404V14.0012C83.5412 13.9341 82.9797 12.9765 82.8748 12.8035L81.033 9.74223C80.9648 9.63124 80.9097 9.54089 80.8441 9.43248C80.734 9.24922 80.7313 9.16404 80.6133 9.16404H77.5542V19.6773C78.5774 19.618 79.758 19.5276 80.7418 19.4502L80.7287 18.6861C80.7287 17.3026 80.7287 15.9191 80.7287 14.5355C80.8258 14.6052 81.4003 15.568 81.5105 15.7461L83.6094 19.1662L83.7799 19.4476L86.8495 19.4347L86.8469 8.93689L83.633 9.16662V9.16404Z" fill="#FEFEFE"/>
    <path fill-rule="evenodd" clip-rule="evenodd" d="M88.3555 9.28024V19.4477L94.2794 19.4502L94.6441 18.0177C94.7044 17.7595 94.7648 17.5298 94.812 17.3078L94.9773 16.5541H91.6874V15.4881H93.739V12.9352H91.6874V11.9441L94.7123 11.9466L94.5995 11.3246C94.4919 10.829 94.3713 10.3282 94.2558 9.83262L94.0774 9.1615H88.4735C88.3843 9.1615 88.3581 9.18731 88.3581 9.27507L88.3555 9.28024Z" fill="#FEFEFE"/>
    <path fill-rule="evenodd" clip-rule="evenodd" d="M94.5671 9.43762C94.5802 9.57959 94.8242 10.0649 94.9055 10.2481L96.7735 14.2361C96.8417 14.3678 96.8837 14.4865 96.9545 14.631L97.5317 15.852C97.7495 16.3734 97.8623 16.0946 97.4058 17.029L96.2619 19.4192C96.1806 19.636 96.3721 19.5534 96.6056 19.5793L98.7858 19.7961C98.9616 19.8116 99.7775 19.8684 99.8693 19.9122C99.8929 19.8167 99.948 19.6954 99.9821 19.6025L102.648 12.7416C102.986 11.913 103.325 10.958 103.658 10.1191C103.734 9.92805 103.799 9.76543 103.857 9.56668L103.896 9.43762C103.123 9.43762 101.386 9.17175 100.491 9.17175L99.6935 11.7014C99.6463 11.8666 99.6096 11.9724 99.565 12.1092C99.5256 12.2279 99.4548 12.4422 99.4443 12.5609C99.3079 12.4628 98.5601 10.2791 98.4814 10.0416C98.429 9.88417 98.3739 9.76543 98.3266 9.62347C98.2768 9.47892 98.1981 9.29823 98.1666 9.17175L97.4819 9.20789L96.6344 9.26984L95.4617 9.36793C95.181 9.39632 94.8898 9.43762 94.5645 9.43762H94.5671Z" fill="#FEFEFE"/>
    <path d="M58.5611 12.9093L57.2159 9.19275L53.9016 9.19278L51.9692 19.5538L56.0543 19.6272L56.6166 14.8812L58.5611 19.9123L60.4935 14.8812L60.9949 19.6613L64.248 19.3984L62.9806 9.15137H59.9843L58.5611 12.9093Z" fill="white"/>
</svg>
