<svg width="7" height="18" viewBox="0 0 7 18" fill="none" xmlns="http://www.w3.org/2000/svg">
    <path d="M1.51301 3.29553C1.51301 3.72394 1.51301 5.6361 1.51301 5.6361H0V8.49815H1.51301V17.0032H4.62106V8.49839H6.70671C6.70671 8.49839 6.90204 7.12606 6.99672 5.62555C6.72526 5.62555 4.63282 5.62555 4.63282 5.62555C4.63282 5.62555 4.63282 3.96049 4.63282 3.66864C4.63282 3.37616 4.97169 2.98273 5.30662 2.98273C5.64092 2.98273 6.34649 2.98273 7 2.98273C7 2.59306 7 1.24666 7 0.00317384C6.12759 0.00317384 5.13507 0.00317384 4.69758 0.00317384C1.43619 0.00297622 1.51301 2.86788 1.51301 3.29553Z" fill="#bcbcc2"/>
</svg>
