<svg width="83" height="17" viewBox="0 0 83 17" fill="none" xmlns="http://www.w3.org/2000/svg">
    <path d="M35.225 9.43426L39.2354 9.43391C39.59 9.43391 39.9411 9.36498 40.2687 9.23106C40.5962 9.09714 40.8939 8.90085 41.1446 8.6534C41.3953 8.40594 41.5942 8.11217 41.7298 7.78886C41.8655 7.46555 41.9354 7.11903 41.9354 6.76908C41.9354 6.41913 41.8655 6.0726 41.7298 5.74929C41.5942 5.42598 41.3953 5.13221 41.1446 4.88476C40.8939 4.63731 40.5962 4.44102 40.2687 4.3071C39.9411 4.17318 39.59 4.10425 39.2354 4.10425L34.4629 4.1051C33.9574 4.1051 33.4727 4.30328 33.1153 4.65605C32.7578 5.00881 32.557 5.48727 32.557 5.98616L39.0965 5.98598C39.3057 5.98429 39.5073 6.06297 39.6588 6.20538C39.8103 6.34779 39.8997 6.54277 39.9082 6.74907C39.9111 6.8536 39.8927 6.95765 39.8542 7.05507C39.8157 7.15249 39.7578 7.24131 39.684 7.3163C39.6102 7.39128 39.5218 7.45091 39.4243 7.49165C39.3267 7.5324 39.2218 7.55345 39.1159 7.55355L34.9472 7.55373C34.2733 7.55375 33.627 7.818 33.1505 8.28834C32.6739 8.75868 32.4062 9.39659 32.4063 10.0617V12.8834H39.5343L40.5456 11.0023H34.4004V10.2482C34.4004 10.0323 34.4873 9.8253 34.642 9.67267C34.7966 9.52004 35.0063 9.43428 35.225 9.43426Z" fill="#EBEBEB"/>
    <path d="M25.7612 5.98998L30.9106 5.98604V4.10498L25.64 4.10867C24.4617 4.10867 23.3317 4.57066 22.4985 5.39301C21.6653 6.21537 21.1973 7.33072 21.1973 8.4937C21.1973 9.65669 21.6653 10.772 22.4985 11.5944C23.3317 12.4167 24.4617 12.8787 25.64 12.8787L30.9106 12.8831V7.5534L25.193 7.55357V9.43471L28.9164 9.43464V11.0021L25.7612 10.9974C25.0885 10.9974 24.4433 10.7336 23.9675 10.2641C23.4918 9.79456 23.2246 9.15773 23.2246 8.4937C23.2246 7.82967 23.4918 7.19284 23.9675 6.7233C24.4433 6.25376 25.0885 5.98998 25.7612 5.98998L25.7612 5.98998Z" fill="#EBEBEB"/>
    <path d="M48.4617 5.11642C48.3149 4.83138 48.106 4.58191 47.85 4.38586C47.5503 4.16598 47.1858 4.04933 46.8124 4.05384C46.4476 4.04935 46.0918 4.16631 45.8026 4.38586C45.5467 4.58192 45.3378 4.83139 45.1909 5.11642C43.5252 8.24837 41.0309 12.8833 41.0309 12.8833H43.3071L46.8124 6.25494L48.4598 9.37002H45.9234L46.8176 11.0553H49.351L50.3177 12.8833H52.5939C52.5939 12.8833 50.1274 8.24837 48.4617 5.11642Z" fill="#EBEBEB"/>
    <path d="M80.5693 4.1106L77.8313 7.91995L75.0937 4.1106H72.663L76.8086 9.74995V12.8818H78.8543V9.74995L83 4.1106H80.5693Z" fill="#EBEBEB"/>
    <path d="M61.9301 4.10547L55.8602 4.10607V5.98667L61.8422 5.9866C62.0513 5.9849 62.2529 6.06355 62.4044 6.20591C62.5558 6.34828 62.6452 6.5432 62.6537 6.74944C62.6565 6.85394 62.6382 6.95796 62.5997 7.05535C62.5612 7.15274 62.5034 7.24153 62.4295 7.31649C62.3557 7.39145 62.2674 7.45105 62.1699 7.49179C62.0723 7.53253 61.9675 7.55357 61.8616 7.55368L58.343 7.55385C57.6693 7.55388 57.0232 7.81804 56.5469 8.28823C56.0705 8.75843 55.8029 9.39614 55.8029 10.0611V12.8819H57.7964V10.2475C57.7964 10.0317 57.8833 9.82474 58.0379 9.67215C58.1925 9.51957 58.4022 9.43384 58.6208 9.43383L61.9301 9.43348C62.646 9.43348 63.3325 9.15281 63.8386 8.65321C64.3448 8.15361 64.6292 7.47602 64.6292 6.76948C64.6292 6.06295 64.3448 5.38535 63.8386 4.88575C63.3325 4.38616 62.646 4.10549 61.9301 4.10549L61.9301 4.10547Z" fill="#EBEBEB"/>
    <path d="M70.8876 5.11642C70.7408 4.83139 70.5319 4.58191 70.2759 4.38586C69.9762 4.16599 69.6117 4.04933 69.2383 4.05384C68.8735 4.04934 68.5177 4.16631 68.2285 4.38586C67.9725 4.58191 67.7637 4.83138 67.6168 5.11642C65.9511 8.24837 63.4568 12.8833 63.4568 12.8833H65.733L69.2383 6.25494L70.8857 9.37002H68.3493L69.2435 11.0553H71.7769L72.7436 12.8833H75.0198C75.0198 12.8833 72.5533 8.24837 70.8876 5.11642Z" fill="#EBEBEB"/>
    <path d="M8.6118 11.9847L5.0813 8.49976L8.6118 17L17.2239 8.49976L8.6118 11.9847Z" fill="#E74011"/>
    <path d="M8.6118 5.01514L0 8.49975L8.6118 16.9999L5.0813 8.49975L8.6118 5.01514Z" fill="#F68B00"/>
    <path d="M8.6118 0L0 8.49987L8.6118 5.01525L12.1426 8.49987L8.6118 0Z" fill="#056AAB"/>
    <path d="M17.224 8.49987L8.61182 0L12.1426 8.49987L8.61182 11.9848L17.224 8.49987Z" fill="#26A2DC"/>
</svg>
