<svg width="18" height="18" viewBox="0 0 18 18" fill="none" xmlns="http://www.w3.org/2000/svg">
    <path fill-rule="evenodd" clip-rule="evenodd" d="M12.5154 0.00317383H5.31039C2.38223 0.00317383 0 2.3854 0 5.31356V12.5185C0 15.4467 2.38223 17.8289 5.31039 17.8289H12.5154C15.4435 17.8289 17.8258 15.4467 17.8258 12.5185V5.31356C17.8257 2.3854 15.4435 0.00317383 12.5154 0.00317383ZM16.0325 12.5185C16.0325 14.461 14.4578 16.0357 12.5154 16.0357H5.31039C3.36795 16.0357 1.79327 14.461 1.79327 12.5185V5.31356C1.79327 3.3711 3.36795 1.79644 5.31039 1.79644H12.5154C14.4578 1.79644 16.0325 3.3711 16.0325 5.31356V12.5185ZM8.91294 4.30566C6.37078 4.30566 4.30257 6.37387 4.30257 8.91601C4.30257 11.4581 6.37078 13.5264 8.91294 13.5264C11.4551 13.5264 13.5233 11.4582 13.5233 8.91601C13.5233 6.37384 11.4551 4.30566 8.91294 4.30566ZM8.91294 11.7331C7.35708 11.7331 6.09584 10.4719 6.09584 8.91604C6.09584 7.36018 7.35712 6.09893 8.91294 6.09893C10.4688 6.09893 11.73 7.36018 11.73 8.91604C11.73 10.4719 10.4688 11.7331 8.91294 11.7331ZM14.6369 4.34028C14.6369 4.95041 14.1423 5.44502 13.5322 5.44502C12.922 5.44502 12.4274 4.95041 12.4274 4.34028C12.4274 3.73015 12.922 3.23554 13.5322 3.23554C14.1423 3.23554 14.6369 3.73015 14.6369 4.34028Z" fill="#bcbcc2"/>
</svg>
