<svg width="25" height="19" viewBox="0 0 25 19" fill="none" xmlns="http://www.w3.org/2000/svg">
    <path d="M5.36145 18.755V17.5075C5.36866 17.4026 5.35362 17.2973 5.31735 17.1988C5.28107 17.1002 5.22439 17.0105 5.15108 16.9357C5.07776 16.861 4.9895 16.8028 4.89217 16.7652C4.79484 16.7276 4.69068 16.7113 4.58663 16.7174C4.45043 16.7084 4.31432 16.7365 4.19253 16.7986C4.07074 16.8608 3.96772 16.9548 3.89423 17.0709C3.82724 16.9583 3.7314 16.8661 3.61679 16.8039C3.50218 16.7417 3.37307 16.7118 3.24305 16.7174C3.12971 16.7117 3.01685 16.7359 2.91564 16.7876C2.81443 16.8394 2.72839 16.917 2.66605 17.0127V16.7673H2.23743V18.755H2.67017V17.6614C2.66097 17.5934 2.66676 17.5242 2.68713 17.4588C2.70751 17.3933 2.74196 17.3332 2.78803 17.2828C2.8341 17.2323 2.89065 17.1928 2.95363 17.1669C3.01662 17.1411 3.08448 17.1296 3.15238 17.1333C3.43676 17.1333 3.58101 17.3204 3.58101 17.6572V18.7634H4.01375V17.6614C4.00492 17.5935 4.01098 17.5244 4.03149 17.4592C4.05201 17.3939 4.08648 17.3339 4.13247 17.2836C4.17846 17.2332 4.23485 17.1936 4.29766 17.1677C4.36047 17.1417 4.42816 17.13 4.49596 17.1333C4.78858 17.1333 4.92871 17.3204 4.92871 17.6572V18.7634L5.36145 18.755ZM11.7641 16.7673H11.0593V16.1644H10.6266V16.7673H10.235V17.1624H10.6348V18.0772C10.6348 18.5388 10.812 18.8133 11.3189 18.8133C11.5083 18.8139 11.6941 18.7606 11.8547 18.6594L11.7311 18.2893C11.6161 18.3585 11.4857 18.3971 11.3519 18.4016C11.1458 18.4016 11.0675 18.2685 11.0675 18.0689V17.1624H11.7682L11.7641 16.7673ZM15.4197 16.7174C15.3152 16.7143 15.2118 16.7397 15.1204 16.791C15.0291 16.8422 14.953 16.9174 14.9004 17.0085V16.7673H14.4759V18.755H14.9046V17.6406C14.9046 17.3121 15.0447 17.1291 15.3167 17.1291C15.4084 17.1279 15.4994 17.1448 15.5846 17.179L15.7165 16.7632C15.6186 16.7278 15.5155 16.7096 15.4115 16.7091L15.4197 16.7174ZM9.89294 16.9254C9.65032 16.7798 9.37137 16.7076 9.08927 16.7174C8.59058 16.7174 8.26498 16.9586 8.26498 17.3537C8.26498 17.678 8.50403 17.8776 8.94502 17.94L9.15109 17.9691C9.38601 18.0024 9.49728 18.0647 9.49728 18.177C9.49728 18.3309 9.34067 18.4182 9.04805 18.4182C8.81268 18.4251 8.58186 18.3518 8.39275 18.2103L8.18668 18.5471C8.43636 18.723 8.73541 18.8134 9.03981 18.8049C9.60856 18.8049 9.93828 18.5346 9.93828 18.1562C9.93828 17.7778 9.67863 17.624 9.25 17.5616L9.04393 17.5325C8.85847 17.5075 8.7101 17.4701 8.7101 17.337C8.7101 17.204 8.85022 17.1042 9.08514 17.1042C9.30227 17.1067 9.51513 17.1654 9.70335 17.2747L9.89294 16.9254ZM21.3731 16.7174C21.2686 16.7143 21.1652 16.7397 21.0738 16.791C20.9824 16.8422 20.9064 16.9174 20.8538 17.0085V16.7673H20.4293V18.755H20.8579V17.6406C20.8579 17.3121 20.9981 17.1291 21.2701 17.1291C21.3618 17.1279 21.4528 17.1448 21.538 17.179L21.6699 16.7632C21.572 16.7278 21.4688 16.7096 21.3649 16.7091L21.3731 16.7174ZM15.8504 17.757C15.8453 17.8967 15.8692 18.0359 15.9205 18.1658C15.9718 18.2956 16.0494 18.4132 16.1483 18.5111C16.2472 18.6089 16.3653 18.6849 16.495 18.734C16.6247 18.7832 16.7631 18.8045 16.9014 18.7966C17.1587 18.8098 17.4117 18.7253 17.6103 18.5596L17.4042 18.2103C17.256 18.3243 17.0754 18.387 16.889 18.3891C16.7306 18.3762 16.5828 18.3035 16.475 18.1856C16.3672 18.0677 16.3074 17.9132 16.3074 17.7529C16.3074 17.5925 16.3672 17.438 16.475 17.3201C16.5828 17.2022 16.7306 17.1296 16.889 17.1166C17.0754 17.1187 17.256 17.1814 17.4042 17.2954L17.6103 16.9461C17.4117 16.7805 17.1587 16.6959 16.9014 16.7091C16.7631 16.7012 16.6247 16.7225 16.495 16.7717C16.3653 16.8209 16.2472 16.8968 16.1483 16.9947C16.0494 17.0925 15.9718 17.2101 15.9205 17.34C15.8692 17.4698 15.8453 17.609 15.8504 17.7487V17.757ZM19.8647 17.757V16.7673H19.4361V17.0085C19.3633 16.914 19.2692 16.8383 19.1618 16.7877C19.0543 16.7371 18.9364 16.713 18.8178 16.7174C18.5446 16.7174 18.2825 16.827 18.0893 17.0219C17.896 17.2169 17.7875 17.4813 17.7875 17.757C17.7875 18.0327 17.896 18.2972 18.0893 18.4921C18.2825 18.6871 18.5446 18.7966 18.8178 18.7966C18.9364 18.801 19.0543 18.7769 19.1618 18.7263C19.2692 18.6757 19.3633 18.6 19.4361 18.5055V18.7467H19.8647V17.757ZM18.2697 17.757C18.2765 17.64 18.3171 17.5276 18.3865 17.4336C18.4559 17.3396 18.551 17.2681 18.6601 17.2279C18.7692 17.1877 18.8876 17.1806 19.0007 17.2075C19.1137 17.2343 19.2166 17.294 19.2965 17.379C19.3764 17.4641 19.4299 17.5709 19.4504 17.6863C19.4709 17.8016 19.4575 17.9205 19.4119 18.0283C19.3663 18.1361 19.2904 18.2281 19.1937 18.2929C19.0969 18.3578 18.9835 18.3926 18.8673 18.3933C18.7857 18.3943 18.7048 18.3783 18.6296 18.3462C18.5545 18.3142 18.4867 18.2668 18.4305 18.2071C18.3744 18.1473 18.3312 18.0765 18.3035 17.999C18.2758 17.9216 18.2643 17.8392 18.2697 17.757ZM13.0973 16.7174C12.8241 16.7213 12.5635 16.8345 12.373 17.0322C12.1825 17.2299 12.0776 17.4959 12.0814 17.7716C12.0852 18.0473 12.1975 18.3102 12.3934 18.5024C12.5893 18.6947 12.8529 18.8005 13.1262 18.7966C13.4227 18.812 13.7142 18.7156 13.9443 18.5263L13.7382 18.2061C13.5755 18.3378 13.3739 18.411 13.1653 18.414C13.0237 18.4263 12.8828 18.3824 12.7727 18.2915C12.6627 18.2007 12.5921 18.0701 12.576 17.9275H14.0391C14.0391 17.8735 14.0391 17.8194 14.0391 17.7612C14.0391 17.1374 13.6558 16.7216 13.1035 16.7216L13.0973 16.7174ZM13.0973 17.1042C13.1615 17.1028 13.2253 17.1142 13.285 17.1377C13.3448 17.1612 13.3994 17.1963 13.4457 17.2411C13.492 17.2859 13.5291 17.3395 13.5549 17.3987C13.5807 17.458 13.5947 17.5218 13.596 17.5865H12.5657C12.5731 17.4531 12.6321 17.3278 12.7299 17.2377C12.8278 17.1475 12.9567 17.0996 13.0891 17.1042H13.0973ZM23.8357 17.7612V15.9689H23.4235V17.0085C23.3507 16.914 23.2567 16.8383 23.1492 16.7877C23.0417 16.7371 22.9238 16.713 22.8053 16.7174C22.532 16.7174 22.27 16.827 22.0767 17.0219C21.8835 17.2169 21.775 17.4813 21.775 17.757C21.775 18.0327 21.8835 18.2972 22.0767 18.4921C22.27 18.6871 22.532 18.7966 22.8053 18.7966C22.9238 18.801 23.0417 18.7769 23.1492 18.7263C23.2567 18.6757 23.3507 18.6 23.4235 18.5055V18.7467H23.8357V17.7612ZM24.5507 18.466C24.5775 18.4657 24.6041 18.4706 24.629 18.4806C24.6527 18.4903 24.6744 18.5044 24.6929 18.5222C24.711 18.5401 24.7257 18.5612 24.7362 18.5845C24.7466 18.6088 24.752 18.635 24.752 18.6615C24.752 18.6879 24.7466 18.7141 24.7362 18.7384C24.7257 18.7617 24.711 18.7828 24.6929 18.8008C24.6744 18.8185 24.6527 18.8326 24.629 18.8424C24.6044 18.8533 24.5777 18.859 24.5507 18.859C24.5117 18.8587 24.4735 18.8472 24.4406 18.8259C24.4078 18.8045 24.3817 18.7742 24.3653 18.7384C24.3549 18.7141 24.3496 18.6879 24.3496 18.6615C24.3496 18.635 24.3549 18.6089 24.3653 18.5845C24.3758 18.5612 24.3904 18.5401 24.4085 18.5222C24.4271 18.5044 24.4487 18.4903 24.4724 18.4806C24.4993 18.4698 24.528 18.4649 24.5569 18.466H24.5507ZM24.5507 18.8174C24.5713 18.8175 24.5917 18.8133 24.6105 18.8049C24.6282 18.7969 24.6443 18.7857 24.6579 18.7717C24.6837 18.7433 24.698 18.7062 24.698 18.6677C24.698 18.6292 24.6837 18.5921 24.6579 18.5637C24.6443 18.5497 24.6282 18.5384 24.6105 18.5305C24.5916 18.5222 24.5713 18.5179 24.5507 18.518C24.5302 18.5181 24.5099 18.5224 24.491 18.5305C24.4724 18.5381 24.4556 18.5495 24.4415 18.5637C24.4157 18.5921 24.4014 18.6292 24.4014 18.6677C24.4014 18.7062 24.4157 18.7433 24.4415 18.7717C24.4557 18.7859 24.4725 18.7972 24.491 18.8049C24.5118 18.814 24.5343 18.8182 24.5569 18.8174H24.5507ZM24.5631 18.57C24.5823 18.569 24.6013 18.5749 24.6167 18.5866C24.623 18.5919 24.6279 18.5986 24.6312 18.6062C24.6344 18.6138 24.6358 18.622 24.6352 18.6303C24.6355 18.6372 24.6344 18.6441 24.6319 18.6505C24.6294 18.657 24.6256 18.6628 24.6208 18.6677C24.6088 18.6787 24.5936 18.6852 24.5775 18.6864L24.6373 18.755H24.5899L24.5342 18.6864H24.5157V18.755H24.4765V18.5721L24.5631 18.57ZM24.5178 18.6053V18.6552H24.5631C24.5712 18.6577 24.5797 18.6577 24.5878 18.6552C24.5893 18.6523 24.59 18.6491 24.59 18.6459C24.59 18.6426 24.5893 18.6394 24.5878 18.6365C24.5893 18.6336 24.59 18.6304 24.59 18.6272C24.59 18.6239 24.5893 18.6207 24.5878 18.6178C24.5797 18.6154 24.5712 18.6154 24.5631 18.6178L24.5178 18.6053ZM22.251 17.7612C22.2578 17.6442 22.2984 17.5318 22.3678 17.4377C22.4371 17.3437 22.5322 17.2722 22.6414 17.2321C22.7505 17.1919 22.8689 17.1848 22.982 17.2116C23.095 17.2385 23.1978 17.2981 23.2778 17.3832C23.3577 17.4683 23.4112 17.5751 23.4317 17.6904C23.4522 17.8058 23.4388 17.9247 23.3932 18.0325C23.3476 18.1403 23.2717 18.2323 23.175 18.2971C23.0782 18.3619 22.9647 18.3968 22.8486 18.3974C22.767 18.3985 22.6861 18.3825 22.6109 18.3504C22.5357 18.3184 22.468 18.271 22.4118 18.2112C22.3557 18.1515 22.3124 18.0806 22.2847 18.0032C22.2571 17.9257 22.2456 17.8433 22.251 17.7612ZM7.77866 17.7612V16.7673H7.35003V17.0085C7.27724 16.914 7.18322 16.8383 7.07573 16.7877C6.96824 16.7371 6.85036 16.713 6.73182 16.7174C6.45855 16.7174 6.19648 16.827 6.00325 17.0219C5.81002 17.2169 5.70147 17.4813 5.70147 17.757C5.70147 18.0327 5.81002 18.2972 6.00325 18.4921C6.19648 18.6871 6.45855 18.7966 6.73182 18.7966C6.85036 18.801 6.96824 18.7769 7.07573 18.7263C7.18322 18.6757 7.27724 18.6 7.35003 18.5055V18.7467H7.77866V17.7612ZM6.18367 17.7612C6.19051 17.6442 6.23111 17.5318 6.30047 17.4377C6.36983 17.3437 6.46494 17.2722 6.57406 17.2321C6.68319 17.1919 6.80158 17.1848 6.91465 17.2116C7.02772 17.2385 7.13054 17.2981 7.21045 17.3832C7.29035 17.4683 7.34386 17.5751 7.36437 17.6904C7.38488 17.8058 7.37151 17.9247 7.3259 18.0325C7.28028 18.1403 7.20442 18.2323 7.10766 18.2971C7.01089 18.3619 6.89744 18.3968 6.78128 18.3974C6.69934 18.399 6.61797 18.3835 6.54231 18.3517C6.46666 18.3199 6.39837 18.2726 6.3418 18.2128C6.28522 18.1529 6.24158 18.0819 6.21365 18.0042C6.18572 17.9264 6.17411 17.8437 6.17955 17.7612H6.18367Z" fill="white"/>
    <path d="M16.2421 1.62067H9.75085V13.3909H16.2421V1.62067Z" fill="#FF5F00"/>
    <path d="M10.1629 7.50691C10.1617 6.37319 10.4162 5.25405 10.9071 4.23425C11.398 3.21445 12.1125 2.32073 12.9964 1.62075C11.902 0.752942 10.5877 0.213305 9.20367 0.0635132C7.81967 -0.0862791 6.42182 0.159816 5.16988 0.773672C3.91794 1.38753 2.86242 2.34438 2.12396 3.53487C1.3855 4.72535 0.993896 6.10144 0.993896 7.50587C0.993896 8.91029 1.3855 10.2864 2.12396 11.4769C2.86242 12.6674 3.91794 13.6242 5.16988 14.2381C6.42182 14.8519 7.81967 15.098 9.20367 14.9482C10.5877 14.7984 11.902 14.2588 12.9964 13.391C12.1128 12.6912 11.3985 11.7978 10.9076 10.7784C10.4167 9.759 10.162 8.64028 10.1629 7.50691Z" fill="#EB001B"/>
    <path d="M24.9999 7.50674C24.9999 8.91126 24.6082 10.2874 23.8696 11.478C23.131 12.6685 22.0753 13.6253 20.8233 14.2391C19.5712 14.8529 18.1732 15.0988 16.7891 14.9488C15.405 14.7988 14.0907 14.2589 12.9963 13.3908C13.8796 12.6904 14.5937 11.7968 15.0847 10.7773C15.5758 9.75785 15.8309 8.63917 15.8309 7.5057C15.8309 6.37222 15.5758 5.25354 15.0847 4.23407C14.5937 3.2146 13.8796 2.32096 12.9963 1.62057C14.0907 0.752499 15.405 0.2126 16.7891 0.0625923C18.1732 -0.0874151 19.5712 0.158522 20.8233 0.77229C22.0753 1.38606 23.131 2.34289 23.8696 3.53342C24.6082 4.72395 24.9999 6.10013 24.9999 7.50466V7.50674Z" fill="#F79E1B"/>
</svg>
