<svg width="10" height="10" viewBox="0 0 10 10" fill="none" xmlns="http://www.w3.org/2000/svg">
<path fill-rule="evenodd" clip-rule="evenodd" d="M5.75 1.00005C5.75 0.585832 5.41421 0.250046 5 0.250046C4.58579 0.250046 4.25 0.585832 4.25 1.00005V4.25005H1C0.585786 4.25005 0.25 4.58583 0.25 5.00005C0.25 5.41426 0.585786 5.75005 1 5.75005H4.25V9.00005C4.25 9.41426 4.58579 9.75005 5 9.75005C5.41421 9.75005 5.75 9.41426 5.75 9.00005V5.75005H9C9.41421 5.75005 9.75 5.41426 9.75 5.00005C9.75 4.58583 9.41421 4.25005 9 4.25005H5.75V1.00005Z" fill="white"/>
</svg>
