<svg width="66" height="66" viewBox="0 0 66 66" fill="none" xmlns="http://www.w3.org/2000/svg">
<path fill-rule="evenodd" clip-rule="evenodd" d="M33 66C51.2254 66 66 51.2254 66 33C66 14.7746 51.2254 0 33 0C14.7746 0 0 14.7746 0 33C0 51.2254 14.7746 66 33 66ZM46.2179 18.7752C45.9055 18.0156 44.9483 16.7363 42.0368 16.7096H41.9437C40.1556 16.7096 38.0284 17.1827 35.9345 18.0489C35.549 18.2089 35.1767 18.3754 34.8178 18.5553L34.7978 18.5354C33.6013 17.3693 31.6935 17.3693 30.497 18.5354L24.6341 24.2458C23.8564 24.9987 23.4176 26.0382 23.4176 27.1243V46.4677C23.4176 48.0269 24.6806 49.2929 26.2361 49.2929H39.0654C40.6209 49.2929 41.8839 48.0269 41.8839 46.4677V27.1243C41.8839 26.5712 41.7709 26.0249 41.5515 25.5318C42.7946 24.8321 43.8781 24.0325 44.709 23.193C46.7431 21.1207 46.5303 19.5348 46.2179 18.7752ZM38.527 24.3524C37.3039 24.8588 36.0475 25.2186 34.9042 25.3918C34.9042 25.4047 34.9046 25.4171 34.9052 25.4294C34.9058 25.4425 34.9067 25.4555 34.9075 25.4685C34.9092 25.4935 34.9108 25.5184 34.9108 25.5451C34.9108 26.8378 33.8672 27.8839 32.5776 27.8839C31.2881 27.8839 30.2444 26.8378 30.2444 25.5451C30.2444 24.2524 31.2881 23.2063 32.5776 23.2063C33.3487 23.2063 34.0267 23.5794 34.4522 24.1525C35.5357 23.9659 36.7056 23.6261 37.8556 23.153C38.2611 22.9864 38.64 22.8132 38.9989 22.6333L36.6458 20.3344C36.7123 20.3078 36.7787 20.2811 36.8452 20.2478C38.6333 19.5082 40.4879 19.0884 41.9503 19.0884H42.0168C43.4194 19.1017 43.9445 19.4815 44.0243 19.6814C44.2703 20.2945 42.7081 22.6266 38.527 24.3524ZM32.941 37.6235C31.4815 37.223 31.0121 36.8089 31.0121 36.164C31.0121 35.4241 31.6615 34.9082 32.7481 34.9082C33.8926 34.9082 34.317 35.4852 34.3555 36.3338H35.7765C35.7315 35.1662 35.0564 34.0937 33.7125 33.7475V32.5608C33.7125 32.3952 33.5782 32.2608 33.4125 32.2608H32.0837C31.918 32.2608 31.7837 32.3952 31.7837 32.5608V33.7271C30.5363 34.0122 29.5333 34.8675 29.5333 36.1776C29.5333 37.7457 30.7613 38.5263 32.5552 38.9812C34.1627 39.3884 34.4841 39.9858 34.4841 40.6171C34.4841 41.0855 34.1691 41.8322 32.7481 41.8322C31.4236 41.8322 30.9028 41.2077 30.8321 40.4067H29.4175C29.4947 41.8933 30.5492 42.7282 31.7837 43.0065V44.1796C31.7837 44.3453 31.918 44.4796 32.0837 44.4796H33.4125C33.5782 44.4796 33.7125 44.3453 33.7125 44.1796V43.0202C34.9663 42.769 35.963 42.0019 35.963 40.6103C35.963 38.6825 34.4006 38.024 32.941 37.6235Z" fill="#fff"/>
</svg>
