<svg width="142" height="22" viewBox="0 0 142 22" fill="none" xmlns="http://www.w3.org/2000/svg">
    <path d="M127.559 8.35967C128.455 8.35967 128.928 7.79524 128.928 7.08969C128.928 6.49703 128.526 6.01021 128.025 5.9326C128.47 5.84088 128.836 5.44577 128.836 4.85311C128.836 4.22518 128.378 3.65369 127.482 3.65369H125.005V8.35967H127.559ZM127.263 5.53749H126.007V4.51445H127.263C127.602 4.51445 127.813 4.73317 127.813 5.0295C127.813 5.32583 127.602 5.53749 127.263 5.53749ZM127.298 7.49185H126.007V6.39826H127.298C127.693 6.39826 127.905 6.65225 127.905 6.94858C127.905 7.28725 127.679 7.49185 127.298 7.49185Z" fill="#D45F93"/>
    <path d="M133.014 8.35967V7.47774H130.686V6.41237H132.965V5.53044H130.686V4.53562H133.014V3.65369H129.684V8.35967H133.014Z" fill="#D45F93"/>
    <path d="M135.893 8.35967V4.53562H137.261V3.65369H133.508V4.53562H134.884V8.35967H135.893Z" fill="#D45F93"/>
    <path d="M141.837 8.35967L140.024 3.65369H138.768L136.948 8.35967H138.091L138.387 7.56241H140.405L140.694 8.35967H141.837ZM140.13 6.68048H138.662L139.396 4.65556L140.13 6.68048Z" fill="#D45F93"/>
    <path d="M29.9658 12.7955C30.323 14.5549 31.6724 15.5207 33.4715 15.5207C35.3368 15.5207 36.5935 14.5285 36.5935 12.6632C36.5935 11.1286 35.6675 10.4143 34.0403 9.99094C32.7571 9.66022 32.2809 9.34272 32.2809 8.64158C32.2809 8.00659 32.81 7.63618 33.4847 7.63618C34.1594 7.63618 34.715 7.98014 34.9928 8.73419L36.3819 8.03305C35.9718 6.85567 35.0193 6.04871 33.4847 6.04871C31.7385 6.04871 30.5611 7.08057 30.5611 8.6019C30.5611 9.97771 31.3152 10.7715 32.8497 11.2609C34.4769 11.7901 34.7944 11.9224 34.8738 12.7293C34.8738 13.5098 34.3578 13.9332 33.5244 13.9332C32.3073 13.9332 31.6988 13.2188 31.4872 12.2266L29.9658 12.7955Z" fill="white"/>
    <path d="M37.8518 15.4148H39.5716V11.0228L42.4555 15.4148H44.5457L41.0665 10.282L44.3076 6.15454H42.2306L39.5716 9.6073V6.15454H37.8518V15.4148Z" fill="white"/>
    <path d="M46.1876 15.4148H51.8232V13.8273H49.8653V7.74201H51.8232V6.15454H46.1876V7.74201H48.1455V13.8273H46.1876V15.4148Z" fill="white"/>
    <path d="M53.6503 15.4148H55.2378V9.48824L58.3731 15.4148H59.9606V6.15454H58.3731V12.1076L55.2378 6.15454H53.6503V15.4148Z" fill="white"/>
    <path d="M66.9921 15.4148H70.1803C72.0853 15.4148 73.2362 14.4094 73.2362 12.6235C73.2362 11.499 72.7732 10.745 71.8472 10.3614C72.4292 10.0571 72.76 9.40887 72.76 8.65481C72.76 7.01442 71.7413 6.15454 70.1142 6.15454H66.9921V15.4148ZM68.7119 9.75282V7.74201H69.9819C70.7359 7.74201 71.1063 8.01982 71.1063 8.74742C71.1063 9.47501 70.7492 9.75282 70.0216 9.75282H68.7119ZM68.7119 13.8273V11.3403H70.0216C71.0667 11.3403 71.5164 11.7769 71.5164 12.5838C71.5164 13.3908 71.0667 13.8273 70.0216 13.8273H68.7119Z" fill="white"/>
    <path d="M74.3093 11.8959C74.3093 13.0865 74.6136 13.9861 75.2221 14.6079C75.8306 15.2164 76.6376 15.5207 77.6298 15.5207C78.622 15.5207 79.4289 15.2164 80.0375 14.6079C80.646 13.9861 80.9503 13.0865 80.9503 11.8959V6.15454H79.2305V11.9224C79.2305 13.2982 78.7807 13.9332 77.6298 13.9332C76.5847 13.9332 76.0291 13.2585 76.0291 11.9224V6.15454H74.3093V11.8959Z" fill="white"/>
    <path d="M82.6187 15.4148H88.2542V13.8273H86.2963V7.74201H88.2542V6.15454H82.6187V7.74201H84.5765V13.8273H82.6187V15.4148Z" fill="white"/>
    <path d="M90.3062 15.4148H96.1931V13.8273H92.026V6.15454H90.3062V15.4148Z" fill="white"/>
    <path d="M97.7954 15.4148H100.401C102.822 15.4148 104.846 13.9199 104.846 10.7847C104.846 7.64941 102.822 6.15454 100.401 6.15454H97.7954V15.4148ZM99.5152 13.8273V7.74201H100.256C101.01 7.74201 101.671 7.96691 102.24 8.42992C102.809 8.89294 103.1 9.67345 103.1 10.7847C103.1 11.8959 102.809 12.6764 102.24 13.1394C101.671 13.6025 101.01 13.8273 100.256 13.8273H99.5152Z" fill="white"/>
    <path d="M105.959 15.4148H111.965V13.8273H107.679V11.2742H111.171V9.68667H107.679V7.74201H111.833V6.15454H105.959V15.4148Z" fill="white"/>
    <path d="M113.488 15.4148H115.208V11.4197H116.107L118.594 15.4148H120.513L117.946 11.2742C119.057 10.9434 119.679 10.0174 119.679 8.7871C119.679 7.19963 118.661 6.15454 116.861 6.15454H113.488V15.4148ZM115.208 9.83219V7.74201H116.875C117.549 7.74201 117.959 8.05951 117.959 8.7871C117.959 9.5147 117.549 9.83219 116.875 9.83219H115.208Z" fill="white"/>
    <path fill-rule="evenodd" clip-rule="evenodd" d="M13.6547 0H9.74008V2.37141C8.75769 2.59432 7.83767 2.98144 7.01039 3.50239L5.33375 1.82464L2.5648 4.59193L4.24145 6.2697C3.71918 7.09797 3.3311 8.01936 3.10775 9.00332L0.736491 9.00322L0.736328 12.918L3.10742 12.9181C3.33035 13.901 3.71763 14.8214 4.23884 15.649L2.56097 17.326L5.32829 20.095L7.00625 18.4179C7.8346 18.9401 8.75605 19.3282 9.74008 19.5515V21.9221H13.6547V19.5514C14.6371 19.3285 15.5572 18.9413 16.3845 18.4203L18.061 20.098L20.83 17.3307L19.1533 15.6529C19.6756 14.8245 20.0637 13.903 20.287 12.9189L22.6583 12.919L22.6585 9.00425L20.287 9.00415C20.0641 8.02178 19.677 7.10176 19.1561 6.27449L20.8338 4.59768L18.0665 1.82875L16.389 3.50541C15.5605 2.98298 14.6389 2.59481 13.6547 2.37147V0ZM11.6974 18.0075C15.589 18.0075 18.7437 14.8527 18.7437 10.9609C18.7437 7.0692 15.589 3.91433 11.6974 3.91433C7.80576 3.91433 4.65099 7.0692 4.65099 10.9609C4.65099 14.8527 7.80576 18.0075 11.6974 18.0075ZM9.34857 7.53605L11.4038 9.0041L10.0336 11.0594L7.97844 9.68918C7.96803 9.71348 7.95762 9.73703 7.94733 9.76032C7.86087 9.95594 7.78273 10.1327 7.78271 10.57C7.7827 10.7889 7.97469 11.947 8.85925 12.4295C9.80741 12.9467 10.5278 12.73 11.0205 12.5818C11.0872 12.5618 11.1497 12.543 11.208 12.5274L13.8504 14.9741L15.612 13.1146L13.1654 10.57C13.2959 10.2764 13.503 9.5213 13.3611 8.90623C13.0675 7.63399 11.8782 7.23747 11.5996 7.14459L11.5995 7.14457C11.0123 6.94882 10.0337 6.94883 9.34857 7.53605Z" fill="white"/>
</svg>

