<svg width="26" height="16" viewBox="0 0 26 16" fill="none" xmlns="http://www.w3.org/2000/svg">
    <path d="M24.0546 4.25998C24.0546 5.55675 22.9774 6.60843 21.6488 6.60843C20.3187 6.60843 19.2423 5.55675 19.2423 4.25998C19.2423 2.96321 20.3193 1.91182 21.6488 1.91182C22.9774 1.91182 24.0546 2.96321 24.0546 4.25998ZM23.0851 8.22783L20.1714 10.66C20.2029 10.8542 20.2242 11.0515 20.2242 11.2538C20.2242 13.3243 18.5042 15.0032 16.3832 15.0032C14.5534 15.0032 13.0254 13.754 12.6383 12.0825L5.43602 9.69752C4.86691 10.1192 4.15942 10.3728 3.38982 10.3728C1.51782 10.3725 0 8.89065 0 7.06351C0 5.23666 1.51782 3.75565 3.38982 3.75565C4.99951 3.75565 6.344 4.85091 6.69096 6.31834L13.6483 8.62235C14.326 7.95189 15.2606 7.53162 16.2962 7.50898L17.3382 4.41734C17.3351 4.35592 17.3287 4.29536 17.3287 4.23338C17.3287 1.8971 19.27 0.00317383 21.6644 0.00317383C24.0584 0.00317383 26 1.8971 26 4.23338C26 6.08428 24.7806 7.65331 23.0851 8.22783ZM5.52124 5.93117C5.11622 5.21968 4.33882 4.73771 3.44587 4.73771C2.13489 4.73771 1.07207 5.77495 1.07207 7.05417C1.07207 8.33339 2.13489 9.37036 3.44587 9.37036C3.68824 9.37036 3.92167 9.33498 4.1418 9.26904L3.01398 8.89574C2.10513 8.42085 1.76309 7.31681 2.24987 6.42984C2.73693 5.54345 3.86822 5.21006 4.7762 5.68495L5.52124 5.93117ZM18.2832 4.24357C18.2832 6.05825 19.7906 7.52935 21.6502 7.52935C23.5098 7.52935 25.0181 6.05825 25.0181 4.24357C25.0181 2.42803 23.5095 0.95693 21.6502 0.95693C19.7906 0.95693 18.2832 2.42803 18.2832 4.24357ZM18.3496 11.5753C18.3496 10.1939 17.2019 9.07347 15.7863 9.07347C15.5876 9.07347 15.3958 9.09781 15.2103 9.13913L16.6429 9.61346C17.5514 10.0889 17.8926 11.1927 17.4061 12.0788C16.9194 12.9666 15.7881 13.2991 14.8801 12.8245L13.3363 12.3131C13.6587 13.3345 14.6337 14.0769 15.7863 14.0769C17.2019 14.0772 18.3496 12.9567 18.3496 11.5753Z" fill="#bcbcc2"/>
</svg>
