<svg width="14" height="14" viewBox="0 0 14 14" fill="none" xmlns="http://www.w3.org/2000/svg">
<path d="M12.7806 5.7323C12.2981 5.7323 11.907 6.12345 11.907 6.60596V7.39395C11.907 8.46523 11.0354 9.33678 9.96414 9.33678H5.19096V7.95185C5.19096 7.72585 4.93931 7.5908 4.75099 7.71573L1.34642 9.9743C1.17749 10.0864 1.17749 10.3344 1.34642 10.4465L4.75099 12.7051C4.93934 12.83 5.19096 12.695 5.19096 12.469V11.084H9.96414C11.9989 11.084 13.6543 9.42866 13.6543 7.39392V6.60593C13.6543 6.12345 13.2631 5.7323 12.7806 5.7323Z" fill="white"/>
<path d="M12.6535 3.55346L9.24894 1.2949C9.06059 1.16996 8.80898 1.30499 8.80898 1.53101V2.91592H3.68429C3.57002 2.91592 3.46098 2.93809 3.36095 2.97799C1.6474 3.29599 0.345703 4.80179 0.345703 6.60604V7.39403C0.345703 7.87654 0.736855 8.26766 1.21934 8.26766C1.70184 8.26766 2.093 7.87651 2.093 7.39403V6.60604C2.093 5.53476 2.96455 4.66321 4.03582 4.66321H8.809V6.04811C8.809 6.27411 9.06062 6.40916 9.24897 6.28423L12.6535 4.02566C12.8225 3.91358 12.8225 3.66552 12.6535 3.55346Z" fill="white"/>
</svg>
