<svg width="20" height="17" viewBox="0 0 20 17" fill="none" xmlns="http://www.w3.org/2000/svg">
    <path d="M20 1.89623C19.2639 2.21747 18.4741 2.43533 17.6442 2.5326C18.4915 2.03285 19.1402 1.24019 19.4476 0.298572C18.6527 0.761367 17.7754 1.09741 16.8406 1.27958C16.092 0.493069 15.0271 0.00317383 13.8461 0.00317383C11.5803 0.00317383 9.74312 1.81254 9.74312 4.04287C9.74312 4.35919 9.77936 4.66813 9.84936 4.96356C6.44001 4.79491 3.41684 3.18619 1.39347 0.741669C1.03977 1.33742 0.838563 2.0316 0.838563 2.7726C0.838563 4.17457 1.56343 5.41159 2.66324 6.13531C1.99085 6.11316 1.35847 5.93099 0.804838 5.62819V5.67866C0.804838 7.63573 2.21958 9.26908 4.09546 9.64082C3.75177 9.7319 3.38935 9.78237 3.01442 9.78237C2.74948 9.78237 2.49327 9.75652 2.24206 9.70728C2.76445 11.3136 4.27919 12.4816 6.07387 12.5137C4.67037 13.5968 2.90069 14.2406 0.978564 14.2406C0.647387 14.2406 0.321177 14.2209 0 14.1852C1.81592 15.3336 3.97177 16.0032 6.28883 16.0032C13.8362 16.0032 17.9617 9.84639 17.9617 4.50692L17.9479 3.98381C18.754 3.41757 19.4513 2.70614 20 1.89623Z" fill="#bcbcc2"/>
</svg>
