<svg width="34" height="11" viewBox="0 0 34 11" fill="none" xmlns="http://www.w3.org/2000/svg">
    <path fill-rule="evenodd" clip-rule="evenodd" d="M34 10.8191V10.7497L31.7654 0.192258C31.0858 0.142315 30.1925 0.178385 29.4934 0.185321C28.7111 0.193645 28.4281 0.56267 28.1784 1.14395C27.9288 1.72801 24.1726 10.6387 24.149 10.8246H27.0258L27.607 9.23753L31.0968 9.23892C31.1939 9.49557 31.2467 9.89512 31.3063 10.1698C31.4686 10.9273 31.3632 10.8329 31.746 10.826C32.4922 10.8135 33.2593 10.8482 34.0014 10.8177L34 10.8191ZM0 0.354573V0.51134C0.780924 0.638972 2.38854 1.15505 2.91702 1.54211C3.29847 1.82235 3.35672 2.34537 3.50098 2.90862L5.13495 9.22782C5.26257 9.7328 5.38601 10.3349 5.5483 10.8107L8.45145 10.8232C8.69142 10.3613 10.4502 6.07307 10.6874 5.49873L12.3533 1.51298C12.4698 1.22719 12.854 0.435037 12.8943 0.19087L10.0299 0.185321L7.18366 7.35356C7.04496 7.13298 6.17387 2.11369 6.02823 1.36454C5.77856 0.0840475 4.95047 0.185321 3.65633 0.185321C2.49257 0.186709 1.23866 0.140927 0.0859987 0.19087L0.00138708 0.354573H0ZM16.957 8.10549C16.8585 8.28029 16.4535 10.1767 16.4535 10.4403C18.4828 11.2963 22.1544 11.3351 23.6524 9.32771C24.0921 8.7381 24.4292 7.75588 24.2308 6.78477C23.873 5.02843 21.9116 4.5942 20.8727 3.81453C19.77 2.9863 20.863 1.86674 23.0837 2.33011C23.5872 2.43554 23.891 2.59786 24.3182 2.72272L24.7954 0.450298C23.7856 0.189483 23.2945 -0.00751517 22.0989 -0.00335323C20.5038 0.00219601 18.6395 0.627874 17.9099 2.09704C17.0291 3.87141 17.8947 5.31144 19.5286 6.1799C20.1168 6.49204 21.2015 6.93182 21.3637 7.49091C21.6509 8.4759 20.3359 8.79776 19.5064 8.76169C17.939 8.69232 17.8517 8.3663 16.957 8.1041V8.10549ZM11.8068 10.8191L14.556 10.8218L16.8335 0.189483L14.0927 0.185321L11.8068 10.8177V10.8191ZM28.4045 7.04142L30.6433 7.05113L29.8388 3.13336C29.732 3.28319 28.467 6.81945 28.4045 7.04142Z" fill="white"/>
</svg>
