<svg width="20" height="13" viewBox="0 0 20 13" fill="none" xmlns="http://www.w3.org/2000/svg">
    <path fill-rule="evenodd" clip-rule="evenodd" d="M17.2129 7.63332C17.8763 8.32006 18.5765 8.96618 19.1715 9.72217C19.4344 10.0581 19.6832 10.4048 19.8736 10.7947C20.1433 11.3489 19.899 11.9588 19.4303 11.9919L16.5166 11.9905C15.7652 12.0566 15.1657 11.7359 14.6616 11.1911C14.2582 10.7555 13.8846 10.2918 13.4967 9.84145C13.3377 9.65738 13.1713 9.48418 12.9724 9.34728C12.5747 9.07354 12.2294 9.15736 12.0021 9.59719C11.7706 10.0445 11.7181 10.5399 11.6954 11.0385C11.6642 11.7659 11.4568 11.9571 10.7676 11.9904C9.29472 12.0641 7.89691 11.8278 6.59838 11.0401C5.45355 10.3456 4.56579 9.36518 3.79308 8.25527C2.28861 6.09403 1.13649 3.71918 0.101007 1.27779C-0.132072 0.727744 0.0383835 0.432482 0.610798 0.422031C1.56132 0.402454 2.51171 0.403848 3.46334 0.420638C3.84966 0.42663 4.10541 0.661558 4.25458 1.04851C4.76884 2.38917 5.39809 3.66469 6.18794 4.847C6.39829 5.16177 6.61277 5.47654 6.9182 5.69809C7.25609 5.9434 7.51335 5.86209 7.67231 5.46302C7.77317 5.20998 7.81733 4.93743 7.84007 4.66641C7.91537 3.73402 7.92529 2.80322 7.79321 1.8741C7.71213 1.29423 7.40407 0.91885 6.85833 0.809119C6.57985 0.753174 6.62131 0.643304 6.75615 0.474772C6.99035 0.184108 7.21061 0.00317383 7.6497 0.00317383H10.9426C11.461 0.11165 11.5761 0.358562 11.6471 0.911604L11.6499 4.78966C11.6442 5.00376 11.7508 5.63908 12.1145 5.78079C12.4056 5.88167 12.5975 5.63476 12.7721 5.43906C13.5605 4.55187 14.1232 3.50341 14.6259 2.41774C14.849 1.94035 15.0408 1.44458 15.2267 0.949226C15.3644 0.581646 15.5806 0.400782 15.9711 0.408794L19.1403 0.41179C19.2343 0.41179 19.3294 0.413253 19.4204 0.429765C19.9544 0.526258 20.1007 0.769825 19.9358 1.32273C19.6759 2.19019 19.1703 2.91309 18.6759 3.63933C18.1473 4.41469 17.5821 5.16351 17.058 5.94347C16.5764 6.65571 16.6147 7.01472 17.2129 7.63332Z" fill="#bcbcc2"/>
</svg>
