<svg width="134" height="23" viewBox="0 0 134 23" fill="none" xmlns="http://www.w3.org/2000/svg">
    <path d="M91.9962 12.2545L93.3801 16.2729H94.309L96.6503 9.93664H95.3422L93.8256 14.2495L92.3659 9.87964H91.6834L90.1384 14.2495L88.726 9.93664H87.418L89.617 16.2729H90.546L91.9962 12.2545Z" fill="white"/>
    <path d="M97.3853 9.93664V16.2729H98.6175V9.93664H97.3853Z" fill="white"/>
    <path d="M101.293 9.93664H100.06V16.2729H101.293V13.575L101.435 13.4325L103.681 16.2729H105.312L102.496 12.8625L105.169 9.93664H103.615L101.293 12.6155V9.93664Z" fill="white"/>
    <path d="M106.086 9.93664V16.2729H107.319V9.93664H106.086Z" fill="white"/>
    <path d="M108.762 9.93664V16.2729H109.994V13.9265H110.79C111.52 13.9265 112.041 13.7175 112.392 13.366C112.875 12.8815 112.913 12.1975 112.913 11.9506C112.913 11.4946 112.781 10.8771 112.269 10.4211C111.804 10.0126 111.311 9.93664 110.601 9.93664H108.762ZM109.994 11.0006H110.42C110.714 11.0006 111.037 11.0196 111.292 11.2001C111.473 11.3331 111.643 11.5706 111.643 11.9221C111.643 12.1975 111.529 12.4825 111.302 12.663C111.037 12.8625 110.733 12.8625 110.496 12.8625H109.994V11.0006Z" fill="white"/>
    <path d="M117.332 9.93664H113.825V16.2729H117.332V15.2089H115.057V13.48H117.237V12.416H115.057V11.0006H117.332V9.93664Z" fill="white"/>
    <path d="M118.527 9.93664V16.2729H120.158C121.039 16.2729 121.731 16.1874 122.471 15.6649C123.305 15.0759 123.741 14.164 123.741 13.1095C123.741 12.0551 123.295 11.1336 122.527 10.5541C121.826 10.0316 121.058 9.93664 120.177 9.93664H118.527ZM119.76 11.0006H120.139C120.556 11.0006 121.181 11.0386 121.693 11.4186C122.196 11.7986 122.471 12.4445 122.471 13.1095C122.471 13.784 122.186 14.43 121.684 14.7909C121.134 15.1899 120.452 15.2089 120.139 15.2089H119.76V11.0006Z" fill="white"/>
    <path d="M124.877 9.93664V16.2729H126.11V9.93664H124.877Z" fill="white"/>
    <path d="M131.856 16.2729H133.183L130.538 9.93664H129.571L126.851 16.2729H128.188L128.747 14.9429H131.297L131.856 16.2729ZM129.135 13.936L130.036 11.6561L130.936 13.936H129.135Z" fill="white"/>
    <path opacity="0.7" d="M79 5H80V23H79V5Z" fill="white"/>
    <path fill-rule="evenodd" clip-rule="evenodd" d="M22.4124 8.52943C22.4176 8.7211 22.8767 10.2441 22.8767 11.6247C22.8767 13.5 22.8112 14.4765 22.0975 16.2067C21.7722 16.9993 21.3997 17.6054 20.9196 18.2918C20.7622 18.5172 20.5864 18.7114 20.4395 18.9264C21.8221 18.9264 23.2021 18.999 24.5873 18.999L25.1251 14.2252L27.0981 19.2709L29.0343 14.2252C29.0369 14.347 29.0736 14.6319 29.0946 14.777L29.2651 16.5201C29.2914 16.8957 29.336 17.3179 29.3753 17.6728C29.4199 18.0587 29.4567 18.6778 29.517 19.0274C30.6163 18.9601 31.6814 18.8643 32.7755 18.7581C32.7807 18.67 32.7125 18.2633 32.6941 18.1416L31.5109 8.49316H28.5305L27.489 11.3268L27.1138 12.2412L26.9485 11.7749L25.9122 8.97753C25.8492 8.79622 25.7837 8.66671 25.7443 8.49575C24.5952 8.49575 23.5274 8.53461 22.415 8.53461L22.4124 8.52943Z" fill="white"/>
    <path fill-rule="evenodd" clip-rule="evenodd" d="M39.1741 15.9815C36.8968 15.9815 35.913 13.4509 37.4032 11.977C38.9091 10.4877 41.4592 11.5911 41.4592 13.6114C41.4592 14.3289 41.1653 14.8806 40.7928 15.2459C40.3625 15.6655 39.8536 15.9815 39.1767 15.9815H39.1741ZM33.2134 13.6114C33.2134 14.8392 33.5649 15.795 34.2759 16.73C34.84 17.4734 35.7713 18.1935 36.6765 18.5639C37.0175 18.7037 37.3717 18.8177 37.7679 18.9006C37.9489 18.9395 38.206 18.9783 38.3686 18.9938C38.8645 19.0431 39.2397 19.0198 39.7171 18.999C41.6874 18.911 43.4609 17.5926 44.3897 15.9297C44.5523 15.6396 44.715 15.2329 44.7858 14.9065C45.2371 12.8473 44.7071 11.2958 43.2694 9.87382C42.3538 8.96725 40.8505 8.26013 39.4469 8.26013C38.2847 8.26013 37.5921 8.27826 36.5164 8.7704C35.9156 9.04496 35.3253 9.44126 34.8872 9.87641C33.8666 10.8892 33.2134 12.0159 33.2134 13.6114Z" fill="white"/>
    <path fill-rule="evenodd" clip-rule="evenodd" d="M52.1032 8.49063V13.3446C52.0114 13.2773 51.4499 12.3163 51.345 12.1428L49.5033 9.07083C49.435 8.95945 49.38 8.8688 49.3144 8.76001C49.2042 8.57611 49.2016 8.49063 49.0835 8.49063H46.0244V19.0404C47.0476 18.9809 48.2282 18.8902 49.212 18.8125L49.1989 18.0458C49.1989 16.6575 49.1989 15.2691 49.1989 13.8808C49.296 13.9507 49.8706 14.9169 49.9807 15.0956L52.0796 18.5276L52.2501 18.8099L55.3197 18.797L55.3171 8.2627L52.1032 8.49322V8.49063Z" fill="white"/>
    <path fill-rule="evenodd" clip-rule="evenodd" d="M9.05847 11.6249C9.05847 12.2154 9.18703 12.6972 9.45726 13.179C10.2575 14.5984 13.0437 14.8988 13.0437 15.4454C13.0437 16.1499 12.1622 16.0567 11.4958 16.0567C11.0839 16.0567 10.693 16.0204 10.3125 15.9634L9.17391 15.7873V18.7297C10.7061 18.9059 11.9575 19.1701 13.4923 18.867C14.164 18.7349 14.7517 18.5147 15.2108 18.1962C16.8637 17.0487 16.9502 14.4404 15.481 13.3421C14.7202 12.7723 13.9777 12.4796 13.1014 12.1377C11.6899 11.586 12.6266 11.1275 13.39 11.1275C14.3319 11.1275 15.1085 11.2234 16.0215 11.4332C15.6568 9.86353 15.4522 9.31441 14.9773 8.40007L14.8802 8.38194C14.8173 8.37158 14.7543 8.36122 14.6887 8.35086C12.1858 7.98046 9.05322 8.50627 9.05322 11.6223L9.05847 11.6249Z" fill="white"/>
    <path fill-rule="evenodd" clip-rule="evenodd" d="M56.8257 8.60719V18.8099L62.7498 18.8125L63.1144 17.375C63.1748 17.116 63.2351 16.8854 63.2823 16.6627L63.4476 15.9063H60.1576V14.8366H62.2093V12.2749H60.1576V11.2803L63.1826 11.2829L63.0698 10.6586C62.9623 10.1613 62.8416 9.6588 62.7261 9.16149L62.5477 8.48804H56.9437C56.8545 8.48804 56.8283 8.51394 56.8283 8.60201L56.8257 8.60719Z" fill="white"/>
    <path fill-rule="evenodd" clip-rule="evenodd" d="M63.0373 8.76532C63.0504 8.90778 63.2944 9.39474 63.3757 9.57864L65.2437 13.5805C65.3119 13.7126 65.3539 13.8317 65.4247 13.9768L66.0019 15.2019C66.2196 15.7251 66.3324 15.4454 65.876 16.383L64.7321 18.7816C64.6508 18.9991 64.8423 18.9162 65.0758 18.9421L67.2559 19.1597C67.4317 19.1753 68.2476 19.2322 68.3395 19.2763C68.3631 19.1804 68.4182 19.0587 68.4523 18.9655L71.1178 12.0808C71.4562 11.2493 71.7946 10.2909 72.1278 9.44913C72.2039 9.25746 72.2695 9.09428 72.3272 8.89483L72.3666 8.76532C71.5926 8.76532 69.8559 8.49854 68.9612 8.49854L68.1637 11.0369C68.1165 11.2027 68.0797 11.3089 68.0351 11.4462C67.9958 11.5653 67.9249 11.7803 67.9144 11.8994C67.778 11.801 67.0303 9.60972 66.9516 9.37143C66.8991 9.21342 66.844 9.09428 66.7968 8.95182C66.747 8.80677 66.6683 8.62545 66.6368 8.49854L65.952 8.5348L65.1046 8.59696L63.9319 8.69539C63.6512 8.72388 63.36 8.76532 63.0347 8.76532H63.0373Z" fill="white"/>
    <path fill-rule="evenodd" clip-rule="evenodd" d="M0.736564 13.3833C0.736564 14.4168 0.715575 14.7198 1.06976 15.73C1.53413 17.0536 2.79607 18.2762 4.1577 18.7191C5.30683 19.0947 6.29854 19.0947 7.529 18.8848C7.67329 18.8615 7.81759 18.833 7.95926 18.8046L8.02748 18.3435L8.10618 17.7711L8.28721 16.4423L8.40002 15.5228L8.05109 15.6756C6.8285 16.2791 4.92117 16.059 4.23116 14.5929C3.95831 14.0127 3.98193 13.1554 4.24691 12.6062C4.49877 12.083 5.01561 11.6634 5.56919 11.464C6.30379 11.1998 6.95968 11.2619 7.45816 11.3837C7.49227 11.3914 7.52637 11.4018 7.56048 11.4096C7.73626 11.4588 7.91204 11.521 8.09044 11.5728L8.38953 11.6945C8.32394 11.5028 7.87793 8.54483 7.82809 8.45159C7.6628 8.28841 6.30117 8.25732 5.92337 8.25732C5.05759 8.25732 4.05801 8.57851 3.40999 8.94631C2.80394 9.29081 2.11132 9.8995 1.71253 10.4797C1.53675 10.7361 1.36097 11.0003 1.2298 11.3034C0.985803 11.868 0.736564 12.5933 0.736564 13.3781V13.3833Z" fill="white"/>
    <path fill-rule="evenodd" clip-rule="evenodd" d="M15.7564 3.48378C14.5443 3.48378 14.7516 2.43217 15.2605 1.88823C15.8482 1.2614 17.5351 0.691564 17.5351 1.99443C17.5351 2.68082 16.4805 3.48378 15.7538 3.48378H15.7564ZM14.3239 2.48915C14.3239 3.41644 14.867 3.97591 15.7459 4.18054C15.898 4.2168 16.2548 4.16759 16.4228 4.24011C16.7166 4.36703 17.0472 4.73225 17.0682 5.13114C17.0786 5.33835 16.9737 5.58442 16.9553 5.77609C17.1285 5.82272 17.4748 6.15167 17.585 6.29931C18.2304 7.15407 17.766 7.7265 17.766 8.02955C17.766 8.24195 18.6554 8.47506 18.6554 9.40494C18.6554 10.2131 17.9024 10.6715 17.2466 10.8813C16.9265 10.9824 16.7428 11.0419 16.9134 11.3916C18.3511 11.3916 19.1355 11.7024 19.5317 12.9354C19.6235 13.2229 19.7888 13.3886 19.9698 13.1866C19.9882 13.1659 20.2374 12.0521 21.3787 12.5261C21.5466 12.596 21.6331 12.6919 21.7906 12.7307C22.0057 12.5883 21.9611 12.3992 21.9191 12.0702C21.8561 11.5833 21.9532 11.8889 21.6226 11.3683C21.5492 11.2543 21.502 11.1714 21.4337 11.0575C20.3738 9.32464 21.481 8.23418 21.481 7.95444C21.481 7.28358 21.014 5.77868 20.7726 5.17517C20.261 3.88785 19.7389 2.93725 19.0043 1.83901C18.393 0.92468 18.54 0.862515 17.5404 0.725236C17.2885 0.691563 17.076 0.652711 16.8215 0.595727C16.6038 0.546513 16.3598 0.476578 16.1683 0.401463C14.9955 -0.0569994 15.6121 0.209789 15.229 0.751138C15.1582 0.852155 15.1188 0.885827 15.0401 0.984254C14.7279 1.37537 14.3213 1.90118 14.3213 2.49174L14.3239 2.48915Z" fill="#D45F93"/>
    <path fill-rule="evenodd" clip-rule="evenodd" d="M17.6505 13.9196C17.6505 15.2121 17.5718 16.015 17.1625 17.222C16.7689 18.3824 16.2757 19.4341 15.5543 20.3743C15.4362 20.5271 15.3313 20.6851 15.2001 20.8276L14.8144 21.2498C14.148 21.9958 13.8673 22.1123 13.1458 22.6588C13.1091 22.6873 13.0986 22.6925 13.0776 22.7106C13.9933 22.7106 15.9242 21.8093 16.7112 21.2472C17.3881 20.7654 17.6793 20.5245 18.2801 19.9288C18.8337 19.3823 19.3689 18.67 19.7886 18.0146C20.0536 17.6028 20.5862 16.5978 20.7541 16.1393C20.8039 15.9995 20.8538 15.8726 20.9089 15.7197C21.0138 15.44 21.103 15.1836 21.1949 14.8572C21.2893 14.5308 21.591 13.3109 21.5989 12.9638C20.6465 12.5131 20.4235 13.3834 20.2556 13.5492C20.0011 13.8004 19.5237 13.803 19.2639 13.5492C19.1065 13.3963 19.1406 13.3601 19.0908 13.1477C18.9176 12.3913 17.981 11.7412 17.1467 11.7412C16.8319 11.7412 17.2412 12.0158 17.4511 12.6633C17.5613 13 17.6478 13.4844 17.6478 13.9196H17.6505Z" fill="#D45F93"/>
</svg>

