<svg width="24" height="16" viewBox="0 0 24 16" fill="none" xmlns="http://www.w3.org/2000/svg">
<path d="M22.7385 2.50362C22.4804 1.52463 21.7238 0.752898 20.7643 0.489286C19.0114 0 11.9998 0 11.9998 0C11.9998 0 4.98844 0 3.23556 0.470736C2.29452 0.734069 1.51946 1.52477 1.26134 2.50362C0.800049 4.29172 0.800049 8 0.800049 8C0.800049 8 0.800049 11.727 1.26134 13.4964C1.51974 14.4752 2.27607 15.247 3.2357 15.5106C5.00689 16 12.0001 16 12.0001 16C12.0001 16 19.0114 16 20.7643 15.5293C21.7239 15.2658 22.4804 14.4941 22.7388 13.5152C23.2 11.727 23.2 8.01883 23.2 8.01883C23.2 8.01883 23.2184 4.29172 22.7385 2.50362ZM9.76745 11.4258V4.57416L15.598 8L9.76745 11.4258Z" fill="#bcbcc2"/>
</svg>
